<svg width="90" height="18" viewBox="0 0 90 18" fill="none" xmlns="http://www.w3.org/2000/svg">
<path d="M5.58594 0.550781C8.28125 0.550781 10.332 2.23047 10.332 4.61328C10.332 6.95703 8.28125 8.65625 5.58594 8.65625C2.83203 8.65625 0.800781 6.95703 0.800781 4.61328C0.800781 2.23047 2.83203 0.550781 5.58594 0.550781ZM5.58594 2.58203C4.21875 2.58203 3.20312 3.32422 3.22266 4.61328C3.20312 5.88281 4.21875 6.64453 5.58594 6.64453C6.93359 6.64453 7.92969 5.88281 7.92969 4.61328C7.92969 3.32422 6.93359 2.58203 5.58594 2.58203ZM15.4102 0.0234375V8.92969H12.9102V0.0234375H15.4102ZM15.4102 9.67188V14.4961H5.95703V15.6484H15.8984V17.6016H3.51562V12.6797H12.9297V11.5859H3.47656V9.67188H15.4102ZM55.625 0.707031V2.69922H52.0898C52.1582 4.47656 53.4473 6.33203 56.1523 7.11328L55 9.08594C52.998 8.50977 51.6211 7.32812 50.8398 5.84375C50.0293 7.48438 48.584 8.83203 46.5234 9.45703L45.3125 7.52344C48.0957 6.63477 49.4824 4.58398 49.5898 2.69922H45.9961V0.707031H55.625ZM60.4492 0.0234375V9.06641H57.9688V5.64844H55.1758V3.67578H57.9688V0.0234375H60.4492ZM60.4492 9.75V14.5547H51.1328V15.6875H60.9766V17.6211H48.6328V12.7383H57.9688V11.7227H48.6133V9.75H60.4492Z" fill="#5534DA"/>
<path d="M24.5664 5.39062V6.96875H17.6914V5.39062H20.1602V3.60938H22.1289V5.39062H24.5664ZM21.1602 7.60938C22.9727 7.60938 24.2695 9.01562 24.2852 10.9844C24.2695 12.9688 22.9727 14.375 21.1602 14.375C19.3477 14.375 18.0195 12.9688 18.0195 10.9844C18.0195 9.01562 19.3477 7.60938 21.1602 7.60938ZM21.1602 9.26562C20.332 9.26562 19.7695 9.90625 19.7695 10.9844C19.7695 12.0625 20.332 12.6875 21.1602 12.6875C21.957 12.6875 22.5195 12.0625 22.5352 10.9844C22.5195 9.90625 21.957 9.26562 21.1602 9.26562ZM30.0039 3.21875V17.4375H28.1133V10.5938H26.957V16.8281H25.0977V3.5H26.957V9H28.1133V3.21875H30.0039ZM42.7539 3.21875V8.59375H44.8477V10.2344H42.7539V17.4688H40.7852V3.21875H42.7539ZM38.6914 4.40625V9.92188H34.1133V12.5C36.1836 12.4922 37.8945 12.3984 39.7852 12.0781L39.957 13.6719C37.7852 14.0625 35.832 14.1562 33.332 14.1562H32.1289V8.34375H36.707V6.01562H32.1133V4.40625H38.6914ZM69.5078 5.39062V6.96875H62.6328V5.39062H65.1016V3.60938H67.0703V5.39062H69.5078ZM66.1016 7.60938C67.9141 7.60938 69.2109 9.01562 69.2266 10.9844C69.2109 12.9688 67.9141 14.375 66.1016 14.375C64.2891 14.375 62.9609 12.9688 62.9609 10.9844C62.9609 9.01562 64.2891 7.60938 66.1016 7.60938ZM66.1016 9.26562C65.2734 9.26562 64.7109 9.90625 64.7109 10.9844C64.7109 12.0625 65.2734 12.6875 66.1016 12.6875C66.8984 12.6875 67.4609 12.0625 67.4766 10.9844C67.4609 9.90625 66.8984 9.26562 66.1016 9.26562ZM74.9453 3.21875V17.4375H73.0547V10.5938H71.8984V16.8281H70.0391V3.5H71.8984V9H73.0547V3.21875H74.9453ZM87.6953 3.21875V8.59375H89.7891V10.2344H87.6953V17.4688H85.7266V3.21875H87.6953ZM83.6328 4.40625V9.92188H79.0547V12.5C81.125 12.4922 82.8359 12.3984 84.7266 12.0781L84.8984 13.6719C82.7266 14.0625 80.7734 14.1562 78.2734 14.1562H77.0703V8.34375H81.6484V6.01562H77.0547V4.40625H83.6328Z" fill="black"/>
</svg>
