<svg width="76" height="76" viewBox="0 0 76 76" fill="none" xmlns="http://www.w3.org/2000/svg">
<rect width="76" height="76" rx="6" fill="#F5F5F5"/>
<path d="M36.6729 39.3266H30.9233C30.5509 39.3266 30.2366 39.1985 29.9804 38.9424C29.7243 38.6862 29.5962 38.3719 29.5962 37.9995C29.5962 37.6271 29.7243 37.3128 29.9804 37.0567C30.2366 36.8005 30.5509 36.6724 30.9233 36.6724H36.6729V30.9228C36.6729 30.5504 36.801 30.2361 37.0572 29.9799C37.3133 29.7238 37.6276 29.5957 38 29.5957C38.3724 29.5957 38.6867 29.7238 38.9429 29.9799C39.199 30.2361 39.3271 30.5504 39.3271 30.9228V36.6724H45.0767C45.4491 36.6724 45.7634 36.8005 46.0196 37.0567C46.2758 37.3128 46.4038 37.6271 46.4038 37.9995C46.4038 38.3719 46.2758 38.6862 46.0196 38.9424C45.7634 39.1985 45.4491 39.3266 45.0767 39.3266H39.3271V45.0762C39.3271 45.4487 39.199 45.7629 38.9429 46.0191C38.6867 46.2753 38.3724 46.4033 38 46.4033C37.6276 46.4033 37.3133 46.2753 37.0572 46.0191C36.801 45.7629 36.6729 45.4487 36.6729 45.0762V39.3266Z" fill="#5534DA"/>
</svg>
