<svg width="179" height="36" viewBox="0 0 179 36" fill="none" xmlns="http://www.w3.org/2000/svg">
<path d="M10.1719 1.10156C15.5625 1.10156 19.6641 4.46094 19.6641 9.22656C19.6641 13.9141 15.5625 17.3125 10.1719 17.3125C4.66406 17.3125 0.601562 13.9141 0.601562 9.22656C0.601562 4.46094 4.66406 1.10156 10.1719 1.10156ZM10.1719 5.16406C7.4375 5.16406 5.40625 6.64844 5.44531 9.22656C5.40625 11.7656 7.4375 13.2891 10.1719 13.2891C12.8672 13.2891 14.8594 11.7656 14.8594 9.22656C14.8594 6.64844 12.8672 5.16406 10.1719 5.16406ZM29.8203 0.046875V17.8594H24.8203V0.046875H29.8203ZM29.8203 19.3438V28.9922H10.9141V31.2969H30.7969V35.2031H6.03125V25.3594H24.8594V23.1719H5.95312V19.3438H29.8203ZM110.25 1.41406V5.39844H103.18C103.316 8.95312 105.895 12.6641 111.305 14.2266L109 18.1719C104.996 17.0195 102.242 14.6562 100.68 11.6875C99.0586 14.9688 96.168 17.6641 92.0469 18.9141L89.625 15.0469C95.1914 13.2695 97.9648 9.16797 98.1797 5.39844H90.9922V1.41406H110.25ZM119.898 0.046875V18.1328H114.938V11.2969H109.352V7.35156H114.938V0.046875H119.898ZM119.898 19.5V29.1094H101.266V31.375H120.953V35.2422H96.2656V25.4766H114.938V23.4453H96.2266V19.5H119.898Z" fill="#5534DA"/>
<path d="M48.1328 10.7812V13.9375H34.3828V10.7812H39.3203V7.21875H43.2578V10.7812H48.1328ZM41.3203 15.2188C44.9453 15.2188 47.5391 18.0312 47.5703 21.9688C47.5391 25.9375 44.9453 28.75 41.3203 28.75C37.6953 28.75 35.0391 25.9375 35.0391 21.9688C35.0391 18.0312 37.6953 15.2188 41.3203 15.2188ZM41.3203 18.5312C39.6641 18.5312 38.5391 19.8125 38.5391 21.9688C38.5391 24.125 39.6641 25.375 41.3203 25.375C42.9141 25.375 44.0391 24.125 44.0703 21.9688C44.0391 19.8125 42.9141 18.5312 41.3203 18.5312ZM59.0078 6.4375V34.875H55.2266V21.1875H52.9141V33.6562H49.1953V7H52.9141V18H55.2266V6.4375H59.0078ZM84.5078 6.4375V17.1875H88.6953V20.4688H84.5078V34.9375H80.5703V6.4375H84.5078ZM76.3828 8.8125V19.8438H67.2266V25C71.3672 24.9844 74.7891 24.7969 78.5703 24.1562L78.9141 27.3438C74.5703 28.125 70.6641 28.3125 65.6641 28.3125H63.2578V16.6875H72.4141V12.0312H63.2266V8.8125H76.3828ZM138.016 10.7812V13.9375H124.266V10.7812H129.203V7.21875H133.141V10.7812H138.016ZM131.203 15.2188C134.828 15.2188 137.422 18.0312 137.453 21.9688C137.422 25.9375 134.828 28.75 131.203 28.75C127.578 28.75 124.922 25.9375 124.922 21.9688C124.922 18.0312 127.578 15.2188 131.203 15.2188ZM131.203 18.5312C129.547 18.5312 128.422 19.8125 128.422 21.9688C128.422 24.125 129.547 25.375 131.203 25.375C132.797 25.375 133.922 24.125 133.953 21.9688C133.922 19.8125 132.797 18.5312 131.203 18.5312ZM148.891 6.4375V34.875H145.109V21.1875H142.797V33.6562H139.078V7H142.797V18H145.109V6.4375H148.891ZM174.391 6.4375V17.1875H178.578V20.4688H174.391V34.9375H170.453V6.4375H174.391ZM166.266 8.8125V19.8438H157.109V25C161.25 24.9844 164.672 24.7969 168.453 24.1562L168.797 27.3438C164.453 28.125 160.547 28.3125 155.547 28.3125H153.141V16.6875H162.297V12.0312H153.109V8.8125H166.266Z" fill="black"/>
</svg>
