<svg width="20" height="20" viewBox="0 0 20 20" fill="none" xmlns="http://www.w3.org/2000/svg">
<path d="M8.7339 17.9163C8.54692 17.9163 8.38506 17.8535 8.24831 17.728C8.11156 17.6025 8.0293 17.4462 8.00152 17.2592L7.75954 15.3778C7.53625 15.3031 7.30735 15.1983 7.07283 15.0637C6.83832 14.9291 6.62865 14.7849 6.44381 14.631L4.70344 15.365C4.52502 15.443 4.34794 15.4521 4.17219 15.3922C3.99644 15.3324 3.85835 15.2202 3.75792 15.0557L2.50475 12.8731C2.40965 12.7085 2.38027 12.5328 2.4166 12.3458C2.45292 12.1588 2.5464 12.0082 2.69704 11.8939L4.20346 10.7545C4.18422 10.6305 4.1706 10.5061 4.16258 10.3811C4.15457 10.2561 4.15056 10.1316 4.15056 10.0077C4.15056 9.88908 4.15457 9.76861 4.16258 9.64628C4.1706 9.52395 4.18422 9.39013 4.20346 9.24484L2.69704 8.1054C2.5464 7.9911 2.45159 7.84046 2.4126 7.65349C2.3736 7.46653 2.40432 7.29079 2.50475 7.12626L3.75792 4.95963C3.85835 4.79511 3.9951 4.68292 4.16819 4.62309C4.34126 4.56326 4.517 4.57234 4.69542 4.65034L6.43579 5.3763C6.63665 5.21711 6.85113 5.07154 7.07923 4.93959C7.30734 4.80763 7.53144 4.70159 7.75152 4.62147L8.00152 2.74007C8.0293 2.5531 8.11156 2.39685 8.24831 2.27132C8.38506 2.14578 8.54692 2.08301 8.7339 2.08301H11.2579C11.4449 2.08301 11.608 2.14578 11.7475 2.27132C11.8869 2.39685 11.9705 2.5531 11.9983 2.74007L12.2402 4.62949C12.4902 4.72029 12.7165 4.82633 12.919 4.94759C13.1214 5.06886 13.3257 5.21176 13.5319 5.3763L15.3044 4.65034C15.4828 4.57234 15.6585 4.56192 15.8316 4.61909C16.0047 4.67624 16.1414 4.78708 16.2419 4.95161L17.495 7.12626C17.5955 7.29079 17.6262 7.46653 17.5872 7.65349C17.5482 7.84046 17.4534 7.9911 17.3027 8.1054L15.7643 9.26886C15.7942 9.40349 15.8105 9.52929 15.8132 9.64628C15.8158 9.76327 15.8172 9.88106 15.8172 9.99966C15.8172 10.1129 15.8145 10.228 15.8092 10.345C15.8038 10.462 15.7846 10.5958 15.7515 10.7465L17.2739 11.8939C17.4245 12.0082 17.5194 12.1588 17.5584 12.3458C17.5974 12.5328 17.5666 12.7085 17.4662 12.8731L16.213 15.0429C16.1126 15.2074 15.9724 15.3204 15.7924 15.3818C15.6123 15.4433 15.4331 15.435 15.2547 15.357L13.5319 14.623C13.3257 14.7876 13.1153 14.9331 12.9005 15.0597C12.6858 15.1863 12.4657 15.2897 12.2402 15.3698L11.9983 17.2592C11.9705 17.4462 11.8869 17.6025 11.7475 17.728C11.608 17.8535 11.4449 17.9163 11.2579 17.9163H8.7339ZM9.16656 16.6663H10.8044L11.1041 14.4339C11.5293 14.3228 11.9179 14.165 12.2699 13.9604C12.6219 13.7558 12.9614 13.4927 13.2884 13.1711L15.3589 14.0413L16.1794 12.6247L14.3717 11.2625C14.4411 11.0467 14.4884 10.8351 14.5135 10.6279C14.5386 10.4206 14.5512 10.2112 14.5512 9.99966C14.5512 9.78278 14.5386 9.57338 14.5135 9.37145C14.4884 9.16953 14.4411 8.96334 14.3717 8.75286L16.1954 7.37465L15.3749 5.95799L13.2803 6.84101C13.0015 6.54293 12.6674 6.27957 12.2779 6.05095C11.8885 5.82231 11.4945 5.66045 11.096 5.56536L10.8332 3.33299H9.17937L8.90375 5.55734C8.47853 5.65777 8.0859 5.81162 7.72585 6.01888C7.36581 6.22615 7.02233 6.49325 6.69542 6.82018L4.6249 5.95799L3.80437 7.37465L5.60406 8.71601C5.53462 8.91365 5.48601 9.11931 5.45823 9.33299C5.43045 9.54667 5.41656 9.77156 5.41656 10.0077C5.41656 10.2246 5.43045 10.4372 5.45823 10.6455C5.48601 10.8538 5.53194 11.0595 5.59604 11.2625L3.80437 12.6247L4.6249 14.0413L6.6874 13.1663C7.00363 13.4911 7.34177 13.7571 7.70181 13.9644C8.06185 14.1717 8.45983 14.3309 8.89573 14.442L9.16656 16.6663ZM10.0095 12.4996C10.7029 12.4996 11.2929 12.2563 11.7795 11.7697C12.2662 11.283 12.5095 10.693 12.5095 9.99966C12.5095 9.30629 12.2662 8.71629 11.7795 8.22963C11.2929 7.743 10.7029 7.49968 10.0095 7.49968C9.3076 7.49968 8.71546 7.743 8.23308 8.22963C7.75072 8.71629 7.50954 9.30629 7.50954 9.99966C7.50954 10.693 7.75072 11.283 8.23308 11.7697C8.71546 12.2563 9.3076 12.4996 10.0095 12.4996Z" fill="#787486"/>
</svg>
