<svg width="165" height="190" viewBox="0 0 165 190" fill="none" xmlns="http://www.w3.org/2000/svg">
<g id="&#225;&#132;&#140;&#225;&#133;&#161;&#225;&#132;&#137;&#225;&#133;&#161;&#225;&#134;&#171; 1 1" clip-path="url(#clip0_79_36)">
<g id="Objects">
<g id="Group">
<path id="Vector" d="M164.975 14.5336C164.899 14.3814 164.722 14.28 164.544 14.3307C163 14.9901 161.456 15.5481 159.861 16.1315C155.481 17.7548 150.924 18.8201 146.367 19.8853C141.152 21.0521 135.835 21.8891 130.646 23.1826C126.165 24.2732 121.709 25.5921 117.405 27.3169C114.165 28.5851 110.975 29.9547 107.987 31.7048C104.443 33.6578 101.582 36.5746 98.7975 39.4661C96.2406 42.1546 93.6583 44.8431 91.4051 47.8107C90.1393 49.4847 89.076 51.3109 88.0634 53.1371C89.6583 47.1005 91.8861 41.0132 95.9621 36.1941C96.2659 35.8137 95.9115 35.3571 95.4811 35.5601C94.4431 36.0673 93.4811 36.7268 92.4937 37.3355C84.9494 42.459 78.2152 48.8252 72.4178 55.851C69.5823 59.3258 66.8482 62.8767 64.595 66.7573C61.9874 71.2974 60.0127 76.1926 58.595 81.24C58.4431 78.247 58.6963 75.2541 59.1013 72.2866C59.1773 71.754 59.2532 71.2467 59.2785 70.7141C59.2785 70.359 59.3798 69.8517 59.0254 69.6488C58.7722 69.522 58.519 69.6488 58.3418 69.8517C58.114 70.08 57.9368 70.3336 57.7342 70.5872C57.3292 71.1199 56.9241 71.6779 56.5444 72.2359C55.2785 74.0367 54.1393 75.939 53.152 77.9173C50.7216 82.914 48.4937 87.9613 46.2406 93.034C43.9621 98.1068 41.8608 103.281 39.6583 108.379C37.557 113.198 35.2532 117.941 32.8735 122.633C31.5823 125.144 30.2659 127.655 28.7216 130.04C28.0634 131.054 27.3798 132.043 26.6709 133.007C26.7722 132.804 26.8735 132.627 26.9747 132.424C29.0507 128.34 30.4684 123.978 31.7596 119.59C32.8228 116.774 33.8861 113.959 35.076 111.22C36.4684 108.1 37.7089 104.93 38.8988 101.734C41.2785 95.6972 44.1646 89.9143 47.4558 84.309C49.5823 80.682 51.8608 77.1311 53.9368 73.4533C55.8861 70.0039 57.4304 66.3515 59.2026 62.826C60.519 60.1881 61.8608 57.5503 63.0001 54.8364C63.3292 54.0755 63.6583 53.2892 63.9621 52.503C64.0887 52.1225 64.2406 51.7167 64.3165 51.3109C64.3165 51.1587 64.3418 50.9811 64.2406 50.829C64.0127 50.4739 63.557 50.6007 63.2785 50.829C62.4684 51.4377 61.7089 52.0718 60.9241 52.7312C58.3925 54.8871 55.7596 56.9162 53.0507 58.8439C58.8482 51.7928 65.0254 44.5895 67.8102 35.7122C68.0127 34.9513 68.5697 33.0491 68.0127 32.415C67.633 32.0852 67.2026 32.5418 66.9747 32.8208C64.6203 35.763 62.1393 38.6037 59.3798 41.1654C60.4431 39.4914 61.4558 37.7667 62.3671 35.9912C63.8861 32.9476 65.3798 29.8786 66.6203 26.7081C68.0887 22.8275 69.2026 18.8454 70.3671 14.8887C71.557 10.5769 72.6203 6.21433 73.9115 1.92787C74.038 1.52205 74.1646 1.11624 74.2406 0.685053C74.2406 0.558235 74.2912 0.406053 74.2406 0.279235C74.1646 0.0509625 73.8861 -0.101219 73.6583 -0.0251284C73.4558 0.0255989 73.2532 0.152417 73.076 0.304599C70.4937 2.73951 68.1899 5.45342 65.7089 7.96442C63.8861 9.84133 62.038 11.7436 60.2912 13.6966C56.7722 17.7041 53.633 22.0666 51.152 26.7842C48.8988 31.0707 47.2532 35.7122 46.2406 40.4552C44.8735 46.644 44.4178 52.9849 43.557 59.2497C42.5697 56.5358 41.9874 53.6697 41.8608 50.7529C41.8102 49.7891 41.7596 48.7745 41.7089 47.7346C41.7089 47.2527 41.7089 46.2128 40.9747 46.4411C40.7469 46.5679 40.6203 46.8215 40.4937 47.0751C40.2659 47.5317 40.0634 48.0136 39.8608 48.4955C39.2279 49.9666 38.519 51.387 37.8608 52.8327C35.9874 56.8909 34.3671 61.1012 33.5317 65.4891C32.7975 69.0908 32.4178 72.7685 32.4178 76.4209C32.4178 81.5443 33.2026 86.5917 33.1773 91.7405C31.7849 89.4831 30.3671 87.2004 29.7849 84.5626C29.4811 83.3198 29.2532 82.077 29.0507 80.8341C29.0001 80.479 28.9241 80.0986 28.8735 79.7435C28.8228 79.4899 28.8228 79.1601 28.6203 78.9826C28.1646 78.6275 27.8608 79.2362 27.7596 79.6167C26.8988 82.356 26.4684 85.2474 26.3671 88.1389C26.2406 91.0557 26.519 93.9725 26.7975 96.8893C27.0507 99.5271 27.3292 102.165 27.5064 104.828C27.3798 105.792 27.3292 106.756 27.2532 107.72C26.9494 112.463 26.4178 117.206 25.5064 121.873C24.8988 125.626 24.114 129.329 22.7975 132.931C22.038 135.493 21.0507 137.978 19.8102 140.337C19.6077 140.667 19.4304 141.022 19.2532 141.352C16.7975 145.74 14.5444 150.229 12.0634 154.592C10.5697 157.153 9.12664 159.766 7.78487 162.429C6.79753 164.154 5.88614 165.904 5.10133 167.705C4.41778 169.226 3.75955 170.774 3.15196 172.321C2.92411 172.98 2.26588 174.299 2.62031 174.959C3.15196 175.441 3.58234 174.806 3.91145 174.122C3.9874 174.046 4.06335 173.969 4.11398 173.893C4.31652 173.614 4.49373 173.335 4.64563 173.031C5.05069 172.346 5.45576 171.687 5.8355 171.027C7.50639 168.11 9.12664 165.168 10.7722 162.226C13.2279 157.661 15.9115 153.222 18.6203 148.783C19.076 148.048 19.5064 147.312 19.9621 146.551C20.519 145.74 21.076 144.953 21.6583 144.142C22.6963 142.721 23.8102 141.352 25.0254 140.084C26.519 138.435 28.3925 136.837 30.1393 135.442C32.6709 133.388 34.9494 131.054 37.1773 128.695C42.3671 123.039 47.2532 117.104 52.3165 111.321C55.6836 107.263 59.3039 103.357 63.1773 99.8061C66.038 97.3966 69.0001 95.0885 72.0127 92.8819C76.8228 89.4324 81.8861 86.3634 86.6709 82.8632C92.3165 78.729 97.8355 74.4171 102.899 69.5727C103.051 69.3951 103.228 69.1922 103.127 68.9386C103.025 68.6089 102.62 68.6596 102.342 68.7357C101.203 69.0401 100.114 69.4966 99.0001 69.7756C97.8608 70.0292 96.6963 70.2575 95.557 70.4604C92.4431 71.0691 89.2532 71.3228 86.0887 71.3481C87.8861 70.6633 89.7089 70.0039 91.5317 69.3951C96.0633 68.0255 100.646 66.8588 105.076 65.1848C112.949 62.4709 119.836 57.6011 126.139 52.2493C127.684 50.9558 129.253 49.6622 130.671 48.2165C130.924 47.9121 131.304 47.6331 131.354 47.202C131.354 46.6947 130.747 46.6947 130.367 46.7961C126.823 47.5571 123.253 48.2926 119.658 48.6731C117.279 48.9013 114.798 49.0789 112.418 48.6477C115.177 47.8107 117.962 47.0751 120.798 46.4918C123.43 45.9591 126.089 45.4519 128.646 44.6656C132.62 43.4989 136.19 41.2161 139.228 38.4261C141.051 36.6761 142.747 34.7991 144.418 32.8969C146.19 30.8678 147.785 28.6865 149.658 26.7335C152.114 24.1464 154.798 21.7876 157.658 19.6824C159.785 18.0084 162.063 16.5881 164.418 15.2438C164.595 15.1423 164.772 15.0916 164.949 14.9901C165.101 14.8887 165.152 14.7111 165.076 14.5336H164.975ZM26.6203 135.036C26.6203 135.036 26.6203 135.036 26.5697 135.036H26.595H26.6203ZM32.6709 107.77C34.6203 101.379 36.4937 94.9617 38.519 88.5954C40.4178 82.077 42.3165 75.5585 44.3165 69.0908C46.5444 61.431 48.3165 53.6443 50.6709 46.0099C52.3418 40.6328 54.2152 35.3064 56.3165 30.0815C58.2152 25.3639 60.3418 20.7223 63.2279 16.512C60.8735 22.1173 58.4431 27.672 56.3925 33.3788C54.4178 38.3754 52.7469 43.4735 51.3039 48.6477C47.7849 60.0867 45.6583 71.9061 42.2659 83.3705C40.8228 88.4432 39.2026 93.4652 37.4558 98.4619C36.2152 102.038 34.7469 105.614 33.5317 109.191C30.8228 117.13 28.3165 125.144 25.2279 132.956C25.1773 133.007 25.1266 133.058 25.076 133.109C24.9747 133.083 24.8735 133.109 24.7975 133.134C25.3292 131.46 25.8355 129.761 26.2659 128.061C28.3165 121.264 30.5697 114.542 32.6709 107.77ZM108.772 45.4265C105.836 47.4556 102.899 49.4847 100.114 51.6913C95.4811 55.3944 90.9747 59.2243 86.4937 63.105C83.8861 65.4384 81.5317 68.0509 79.076 70.5619C76.6456 73.0982 74.1899 75.5839 71.8861 78.2217C68.8228 81.6458 65.6836 85.0191 62.7469 88.57C60.1646 91.6137 57.8102 94.8602 55.4811 98.1068C53.7596 100.415 52.0127 102.723 50.3925 105.107C48.4684 107.872 46.4684 110.56 44.5444 113.325C42.6203 116.115 40.7216 118.905 38.8482 121.72C37.6583 123.496 36.4684 125.297 35.076 126.945C33.4304 128.898 31.7342 130.953 29.8608 132.754C29.152 133.388 28.4684 134.022 27.7849 134.681C27.7849 134.681 27.7849 134.681 27.7596 134.681C27.4304 134.605 27.4304 134.301 27.5064 134.047C28.8482 132.551 30.1899 131.08 31.5064 129.558C33.1013 127.706 34.5444 125.728 35.8861 123.699C43.0254 113.249 50.2406 102.824 57.9115 92.7297C60.7722 89.0012 63.7342 85.3235 66.9241 81.874C72.4178 76.0404 78.0887 70.4097 83.7596 64.7282C91.076 57.4235 98.8735 50.5753 107.354 44.6656C114.114 40.1001 121.304 36.1941 128.722 32.8208C121.785 36.5492 115.304 41.0893 108.772 45.4519V45.4265Z" fill="#5534DA"/>
<path id="Vector_2" d="M115.001 173.767C114.798 174.198 114.519 174.578 114.216 174.933C111.026 178.256 106.317 179.981 101.861 180.868C97.3549 181.807 92.722 180.944 88.317 179.955C92.6967 176.328 97.6081 172.092 98.5955 166.183C99.5575 159.106 92.8993 154.516 86.4942 154.211C65.0765 153.501 45.7347 165.143 27.5828 175.212C20.6967 178.991 13.0258 183.836 4.84861 181.934C3.70937 181.604 2.54482 180.868 2.19039 179.651C2.2157 179.321 2.0638 178.941 1.73469 178.788C-0.796956 178.281 1.00051 181.857 2.16507 182.492C12.2157 188.249 26.1904 177.571 35.0765 172.955C44.241 167.933 53.7094 162.86 63.6841 159.588C71.9625 157.128 81.76 154.389 90.2917 156.697C94.6461 157.965 98.0385 162.53 96.6461 167.096C94.8992 172.371 90.3676 176.1 86.1397 179.397C79.4815 177.799 72.5701 176.049 65.6841 177.038C61.8866 177.723 57.5068 179.068 55.6081 182.72C52.6461 188.706 60.0638 189.872 64.3676 189.746C72.4436 189.492 80.1398 186.169 86.5195 181.274C93.76 183.176 100.925 183.887 107.988 180.894C111.178 179.423 114.798 177.799 116.519 174.527C117.051 173.538 115.482 172.727 114.975 173.716L115.001 173.767ZM64.1398 188.046C61.8106 187.869 57.7094 188.198 56.722 185.586C56.5701 182.289 60.2157 180.361 62.9499 179.524C69.9625 177.393 77.3549 179.169 84.2916 180.792C78.4436 185.079 71.4309 187.843 64.1398 188.046Z" fill="#5534DA"/>
</g>
</g>
</g>
<defs>
<clipPath id="clip0_79_36">
<rect width="164.557" height="189.796" fill="white" transform="translate(0.443359)"/>
</clipPath>
</defs>
</svg>
