<svg width="24" height="24" viewBox="0 0 24 24" fill="none" xmlns="http://www.w3.org/2000/svg">
<g id="search_FILL0_wght300_GRAD0_opsz24 1">
<path id="Vector" d="M9.51965 15.6155C7.81196 15.6155 6.36582 15.0232 5.18122 13.8386C3.99661 12.6539 3.4043 11.2078 3.4043 9.50012C3.4043 7.79243 3.99661 6.34628 5.18122 5.16167C6.36582 3.97707 7.81196 3.38477 9.51965 3.38477C11.2273 3.38477 12.6735 3.97707 13.8581 5.16167C15.0427 6.34628 15.635 7.79243 15.635 9.50012C15.635 10.2142 15.5151 10.8963 15.2754 11.5463C15.0356 12.1963 14.7158 12.7616 14.3158 13.2424L20.0696 18.9963C20.2081 19.1347 20.2789 19.3088 20.2821 19.5184C20.2853 19.728 20.2145 19.9052 20.0696 20.0501C19.9248 20.195 19.7491 20.2674 19.5427 20.2674C19.3363 20.2674 19.1607 20.195 19.0158 20.0501L13.2619 14.2962C12.7619 14.7091 12.1869 15.0321 11.5369 15.2655C10.8869 15.4988 10.2145 15.6155 9.51965 15.6155ZM9.51965 14.1155C10.8081 14.1155 11.8995 13.6684 12.7937 12.7742C13.6879 11.8799 14.135 10.7886 14.135 9.50012C14.135 8.21165 13.6879 7.1203 12.7937 6.22607C11.8995 5.33183 10.8081 4.88472 9.51965 4.88472C8.23118 4.88472 7.13983 5.33183 6.2456 6.22607C5.35138 7.1203 4.90427 8.21165 4.90427 9.50012C4.90427 10.7886 5.35138 11.8799 6.2456 12.7742C7.13983 13.6684 8.23118 14.1155 9.51965 14.1155Z" fill="#333236"/>
</g>
</svg>
