<svg width="199" height="57" viewBox="0 0 199 57" fill="none" xmlns="http://www.w3.org/2000/svg">
<g id="Taskify">
<path d="M12.6156 44.7818V13.0874H0.139648V5.72179H34.1143V13.0874H21.6384V44.7818H12.6156Z" fill="#5534DA"/>
<path d="M53.9474 44.7818V38.9228L53.3904 37.6394V27.149C53.3904 25.289 52.8149 23.8382 51.6638 22.7966C50.5499 21.755 48.8233 21.2342 46.4841 21.2342C44.8874 21.2342 43.3094 21.4946 41.7499 22.0154C40.2275 22.499 38.928 23.1686 37.8512 24.0242L34.7322 17.942C36.3659 16.7888 38.3339 15.896 40.636 15.2636C42.9381 14.6312 45.2773 14.315 47.6537 14.315C52.2208 14.315 55.7668 15.3938 58.2917 17.5514C60.8166 19.709 62.079 23.0756 62.079 27.6512V44.7818H53.9474ZM44.8132 45.2282C42.4739 45.2282 40.4689 44.8376 38.798 44.0564C37.1271 43.238 35.8461 42.1406 34.955 40.7642C34.0638 39.3878 33.6182 37.844 33.6182 36.1328C33.6182 34.3472 34.0452 32.7848 34.8993 31.4456C35.7904 30.1064 37.1828 29.0648 39.0765 28.3208C40.9701 27.5396 43.4393 27.149 46.4841 27.149H54.4486V32.2268H47.4309C45.3887 32.2268 43.9777 32.5616 43.198 33.2312C42.4554 33.9008 42.0841 34.7378 42.0841 35.7422C42.0841 36.8582 42.5111 37.751 43.3651 38.4206C44.2562 39.053 45.463 39.3692 46.9853 39.3692C48.4334 39.3692 49.733 39.0344 50.8841 38.3648C52.0351 37.658 52.8706 36.635 53.3904 35.2958L54.7271 39.3134C54.0959 41.2478 52.9448 42.7172 51.2739 43.7216C49.6031 44.726 47.4495 45.2282 44.8132 45.2282Z" fill="#5534DA"/>
<path d="M78.7578 45.2282C76.1958 45.2282 73.7266 44.9306 71.3502 44.3354C69.011 43.703 67.1544 42.9218 65.7806 41.9918L68.6768 35.7422C70.0506 36.5978 71.6658 37.3046 73.5224 37.8626C75.416 38.3834 77.2726 38.6438 79.092 38.6438C81.097 38.6438 82.508 38.402 83.3249 37.9184C84.1789 37.4348 84.6059 36.7652 84.6059 35.9096C84.6059 35.2028 84.2717 34.682 83.6034 34.3472C82.9721 33.9752 82.1181 33.6962 81.0413 33.5102C79.9646 33.3242 78.7764 33.1382 77.4768 32.9522C76.2143 32.7662 74.9333 32.5244 73.6338 32.2268C72.3342 31.892 71.146 31.4084 70.0692 30.776C68.9924 30.1436 68.1198 29.288 67.4515 28.2092C66.8203 27.1304 66.5046 25.7354 66.5046 24.0242C66.5046 22.127 67.043 20.453 68.1198 19.0022C69.2338 17.5514 70.8304 16.4168 72.9097 15.5984C74.989 14.7428 77.4768 14.315 80.373 14.315C82.4152 14.315 84.4945 14.5382 86.611 14.9846C88.7274 15.431 90.4911 16.082 91.9021 16.9376L89.0059 23.1314C87.5578 22.2758 86.0911 21.6992 84.6059 21.4016C83.1578 21.0668 81.7468 20.8994 80.373 20.8994C78.4422 20.8994 77.0312 21.1598 76.1401 21.6806C75.2489 22.2014 74.8034 22.871 74.8034 23.6894C74.8034 24.4334 75.119 24.9914 75.7502 25.3634C76.4186 25.7354 77.2911 26.033 78.3679 26.2562C79.4447 26.4794 80.6143 26.684 81.8768 26.87C83.1764 27.0188 84.4759 27.2606 85.7755 27.5954C87.0751 27.9302 88.2447 28.4138 89.2844 29.0462C90.3612 29.6414 91.2337 30.4784 91.9021 31.5572C92.5705 32.5988 92.9046 33.9752 92.9046 35.6864C92.9046 37.5464 92.3477 39.2018 91.2337 40.6526C90.1198 42.0662 88.5046 43.1822 86.3882 44.0006C84.3089 44.819 81.7654 45.2282 78.7578 45.2282Z" fill="#5534DA"/>
<path d="M104.184 38.6438L104.407 28.0418L118.387 14.7614H128.746L115.324 28.4324L110.812 32.1152L104.184 38.6438ZM96.9996 44.7818V3.37819H105.688V44.7818H96.9996ZM119.334 44.7818L109.197 32.171L114.655 25.4192L129.86 44.7818H119.334Z" fill="#5534DA"/>
<path d="M132.502 44.7818V14.7614H141.191V44.7818H132.502ZM136.846 10.5764C135.25 10.5764 133.95 10.1114 132.948 9.18139C131.945 8.25139 131.444 7.09819 131.444 5.72179C131.444 4.34539 131.945 3.19219 132.948 2.26219C133.95 1.33219 135.25 0.867188 136.846 0.867188C138.443 0.867188 139.742 1.31359 140.745 2.20639C141.748 3.06199 142.249 4.17799 142.249 5.55439C142.249 7.00519 141.748 8.21419 140.745 9.18139C139.78 10.1114 138.48 10.5764 136.846 10.5764Z" fill="#5534DA"/>
<path d="M149.047 44.7818V14.0918C149.047 10.7066 150.049 8.00959 152.054 6.00079C154.059 3.95479 156.918 2.93179 160.632 2.93179C161.894 2.93179 163.101 3.06199 164.252 3.32239C165.44 3.58279 166.443 3.99199 167.259 4.54999L164.976 10.8554C164.493 10.5206 163.955 10.2602 163.361 10.0742C162.767 9.88819 162.135 9.79519 161.467 9.79519C160.205 9.79519 159.221 10.1672 158.515 10.9112C157.847 11.618 157.513 12.6968 157.513 14.1476V16.9376L157.735 20.6762V44.7818H149.047ZM144.424 22.127V15.431H165.199V22.127H144.424Z" fill="#5534DA"/>
<path d="M172.593 56.0534C171.033 56.0534 169.492 55.8116 167.97 55.328C166.448 54.8444 165.204 54.1748 164.238 53.3192L167.413 47.1254C168.081 47.7206 168.842 48.1856 169.696 48.5204C170.588 48.8552 171.46 49.0226 172.314 49.0226C173.54 49.0226 174.505 48.725 175.21 48.1298C175.953 47.5718 176.621 46.6232 177.215 45.284L178.775 41.6012L179.443 40.6526L190.193 14.7614H198.547L185.013 46.6232C184.048 49.0412 182.934 50.9384 181.671 52.3148C180.446 53.6912 179.072 54.6584 177.55 55.2164C176.064 55.7744 174.412 56.0534 172.593 56.0534ZM177.717 45.9536L164.35 14.7614H173.317L183.676 39.8714L177.717 45.9536Z" fill="#5534DA"/>
</g>
</svg>
