<svg width="21" height="16" viewBox="0 0 21 16" fill="none" xmlns="http://www.w3.org/2000/svg">
<g clip-path="url(#clip0_533_4145)">
<path d="M16.5846 14H3.51795C3.24154 14 3.01538 14.225 3.01538 14.5V15.5C3.01538 15.775 3.24154 16 3.51795 16H16.5846C16.861 16 17.0872 15.775 17.0872 15.5V14.5C17.0872 14.225 16.861 14 16.5846 14ZM18.5949 4C17.7625 4 17.0872 4.67188 17.0872 5.5C17.0872 5.72188 17.1374 5.92812 17.2254 6.11875L14.9513 7.475C14.4676 7.7625 13.8425 7.6 13.5629 7.1125L11.003 2.65625C11.3391 2.38125 11.559 1.96875 11.559 1.5C11.559 0.671875 10.8837 0 10.0513 0C9.21891 0 8.54359 0.671875 8.54359 1.5C8.54359 1.96875 8.76346 2.38125 9.09955 2.65625L6.53961 7.1125C6.26006 7.6 5.63186 7.7625 5.15128 7.475L2.88032 6.11875C2.96513 5.93125 3.01853 5.72188 3.01853 5.5C3.01853 4.67188 2.3432 4 1.51083 4C0.678461 4 0 4.67188 0 5.5C0 6.32812 0.67532 7 1.50769 7C1.58936 7 1.67103 6.9875 1.74955 6.975L4.02051 13H16.0821L18.353 6.975C18.4315 6.9875 18.5132 7 18.5949 7C19.4272 7 20.1026 6.32812 20.1026 5.5C20.1026 4.67188 19.4272 4 18.5949 4Z" fill="#FDD446"/>
</g>
<defs>
<clipPath id="clip0_533_4145">
<rect width="20.1026" height="16" fill="white"/>
</clipPath>
</defs>
</svg>
